HIERARCHY
ROOT ui
{
	 OFFSET 0 0 0
	 CHANNELS 3 XPosition YPosition Z Position
	 EndSite
	 {
	 OFFSET 0 -1 0
	 }
}
ROOT li
{
	 OFFSET 0 0 0
	 CHANNELS 3 XPosition YPosition Z Position
	 EndSite
	 {
	 OFFSET 0 -1 0
	 }
}
ROOT ul
{
	 OFFSET 0 0 0
	 CHANNELS 3 XPosition YPosition Z Position
	 EndSite
	 {
	 OFFSET 0 -1 0
	 }
}
ROOT ll
{
	 OFFSET 0 0 0
	 CHANNELS 3 XPosition YPosition Z Position
	 EndSite
	 {
	 OFFSET 0 -1 0
	 }
}
ROOT tt
{
	 OFFSET 0 0 0
	 CHANNELS 3 XPosition YPosition Z Position
	 EndSite
	 {
	 OFFSET 0 -1 0
	 }
}
ROOT tb
{
	 OFFSET 0 0 0
	 CHANNELS 3 XPosition YPosition Z Position
	 EndSite
	 {
	 OFFSET 0 -1 0
	 }
}
ROOT td
{
	 OFFSET 0 0 0
	 CHANNELS 3 XPosition YPosition Z Position
	 EndSite
	 {
	 OFFSET 0 -1 0
	 }
}
ROOT v
{
	 OFFSET 0 0 0
	 CHANNELS 3 XPosition YPosition Z Position
	 EndSite
	 {
	 OFFSET 0 -1 0
	 }
}
ROOT bn
{
	 OFFSET 0 0 0
	 CHANNELS 3 XPosition YPosition Z Position
	 EndSite
	 {
	 OFFSET 0 -1 0
	 }
}
MOTION
Frames: 32
Frame Time: 0.002
-0.008617711067199708	5.909919738769532E-4	0		0.3552998046875	-2.374881103515625	0		-1.0903856201171875	0.09413858795166016	0		-1.06507958984375	-2.32147412109375	0		1.3014215087890626	-0.7022982177734375	0		3.005187255859375	-0.38273724365234374	0		4.4495576171875	-0.15846029663085937	0		5.5326318359375	0.18701864624023437	0		-0.07729161834716797	6.011197265625	0		
-0.05648439025878906	0.002309062957763672	0		0.3692524108886719	-2.383060791015625	0		-1.0132059326171876	0.0980788803100586	0		-0.9840897827148437	-2.3275908203125	0		1.306521728515625	-0.7023670654296875	0		2.999208251953125	-0.388679443359375	0		4.47278125	-0.15084829711914063	0		5.5326484375	0.17994252014160156	0		-0.03896736526489258	6.01767919921875	0		
0.0033543570041656492	-0.007517567157745361	0		0.37215252685546873	-2.385075439453125	0		-1.0852220458984374	0.09917048645019531	0		-1.0571087646484374	-2.323485595703125	0		1.3114822998046876	-0.702428466796875	0		2.982278076171875	-0.3814569091796875	0		4.46372509765625	-0.15276806640625	0		5.54272607421875	0.18672805786132812	0		-0.0669763412475586	6.01111962890625	0		
-0.046723636627197265	0.0022455999851226805	0		0.38096630859375	-2.38016943359375	0		-1.0655216064453126	0.09294614410400391	0		-0.9744168701171875	-2.327619384765625	0		1.322168701171875	-0.7085678100585937	0		3.00782470703125	-0.3978427429199219	0		4.4734072265625	-0.15995176696777344	0		5.55238623046875	0.17752439880371093	0		-0.045934844970703125	6.02085986328125	0		
-0.03013787269592285	0.004051949977874756	0		0.36158505249023437	-2.3728515625	0		-1.094900634765625	0.09743479919433594	0		-1.0318653564453124	-2.324727783203125	0		1.332814453125	-0.7017000122070313	0		3.015750732421875	-0.3719639892578125	0		4.48023681640625	-0.1410842742919922	0		5.5610625	0.18534471130371094	0		-0.041268234252929685	6.02083984375	0		
-0.03294242858886719	-0.0028584320545196533	0		0.389736572265625	-2.380216796875	0		-0.990541259765625	0.10099469757080078	0		-0.9656447143554687	-2.327618896484375	0		1.3250850830078125	-0.7025620727539063	0		3.00179638671875	-0.3887664794921875	0		4.49447119140625	-0.1453179626464844	0		5.54640673828125	0.188510986328125	0		-0.03882571029663086	6.0238564453125	0		
-0.05985830688476562	0.0025856220722198487	0		0.38278033447265625	-2.37506884765625	0		-1.0526544189453124	0.09296212005615234	0		-1.00166943359375	-2.327029052734375	0		1.3290823974609376	-0.7025879516601562	0		2.999900390625	-0.3817332458496094	0		4.47647998046875	-0.14507646179199218	0		5.56038818359375	0.18627268981933592	0		-0.04890689468383789	6.01105615234375	0		
-0.025227794647216795	-0.0028584399223327635	0		0.4202590026855469	-2.388562255859375	0		-1.0589312744140624	0.0941262435913086	0		-0.9620598754882812	-2.331531494140625	0		1.3327779541015625	-0.7026043090820312	0		3.025497314453125	-0.38909259033203125	0		4.4990947265625	-0.1514145965576172	0		5.55899658203125	0.17926608276367187	0		-0.011027275085449218	6.0165673828125	0		
-0.04882586669921875	-0.0024548490047454834	0		0.3727752380371094	-2.37781787109375	0		-1.0845423583984375	0.09357333374023437	0		-1.032583984375	-2.32343408203125	0		1.3420797119140624	-0.708697509765625	0		3.013197021484375	-0.3678931884765625	0		4.48056689453125	-0.14614701843261718	0		5.5723681640625	0.17705563354492188	0		-0.041627799987792966	6.0110732421875	0		
0.02932097053527832	4.7704100608825684E-4	0		0.4058379211425781	-2.378238037109375	0		-1.0373909912109376	0.09696858215332031	0		-1.025459716796875	-2.319458984375	0		1.3482249755859375	-0.7047387084960938	0		3.0360546875	-0.3842007141113281	0		4.51276025390625	-0.13960664367675782	0		5.57546728515625	0.17700344848632812	0		-0.03845304107666016	6.01109375	0		
-0.042924362182617186	-0.0024042310714721678	0		0.40658489990234375	-2.380184326171875	0		-1.0396424560546875	0.09308355712890624	0		-0.948792724609375	-2.327491455078125	0		1.3420511474609376	-0.7025953979492188	0		3.032957275390625	-0.37712213134765626	0		4.48156689453125	-0.13913864135742188	0		5.5734052734375	0.1860363006591797	0		-0.03557477951049805	6.01112353515625	0		
0.03465222930908203	5.448830127716065E-4	0		0.43196499633789065	-2.3884833984375	0		-0.9750343627929687	0.09823297882080079	0		-0.9483221435546875	-2.329411865234375	0		1.3445694580078125	-0.7025716552734375	0		3.032406982421875	-0.38207379150390625	0		4.51400146484375	-0.145586669921875	0		5.5659638671875	0.18815625	0		-0.03297880172729492	6.0111630859375	0		
-0.042062065124511716	0.0027441620826721192	0		0.40724798583984373	-2.385045166015625	0		-1.0348511962890625	0.09319680786132813	0		-0.9501427612304687	-2.333292236328125	0		1.34378125	-0.7054920043945313	0		3.017667236328125	-0.3818093872070312	0		4.48635302734375	-0.13915011596679688	0		5.5830673828125	0.17692835998535156	0		-0.030649791717529296	6.0112138671875	0		
0.043871227264404296	-0.0034150500297546386	0		0.411266845703125	-2.383015869140625	0		-1.0718311767578126	0.0938381576538086	0		-1.0101311645507813	-2.331317138671875	0		1.357802001953125	-0.7046181640625	0		3.050529296875	-0.3922285461425781	0		4.49326416015625	-0.1462064666748047	0		5.585083984375	0.17693255615234374	0		-0.011442596435546876	6.02002880859375	0		
-0.023178258895874024	0.008664454460144043	0		0.4191274108886719	-2.3760322265625	0		-1.02599365234375	0.09728329467773437	0		-0.9372769165039062	-2.325266357421875	0		1.362621337890625	-0.701599853515625	0		3.0496728515625	-0.3671419982910156	0		4.49423486328125	-0.13316217041015624	0		5.58200048828125	0.18602468872070313	0		-0.00959964370727539	6.0201044921875	0		
0.042278564453125	8.219699859619141E-4	0		0.416612548828125	-2.379887939453125	0		-1.02948486328125	0.09345589447021484	0		-1.0167102661132812	-2.322987060546875	0		1.3552249755859376	-0.698392333984375	0		3.0449150390625	-0.3889916381835937	0		4.52570849609375	-0.13955203247070314	0		5.58843603515625	0.1769892578125	0		-0.024120931625366212	6.0104287109375	0		
-0.031411056518554685	-0.001980942964553833	0		0.4138790588378906	-2.38472998046875	0		-1.028123291015625	0.09356831359863281	0		-0.9435097045898437	-2.332924072265625	0		1.3535213623046876	-0.7022575073242188	0		3.02844921875	-0.3766551513671875	0		4.5009833984375	-0.14511042785644532	0		5.57982861328125	0.17918690490722655	0		-0.038864070892333985	5.99976611328125	0		
0.04668878936767578	-0.0069881281852722165	0		0.41502450561523435	-2.38461767578125	0		-1.0269560546875	0.09369335174560547	0		-1.0192971801757813	-2.32767626953125	0		1.354681640625	-0.7021534423828125	0		3.042537841796875	-0.3817550048828125	0		4.5021484375	-0.14503404235839842	0		5.58099658203125	0.17925379943847655	0		-0.021485971450805663	6.01064794921875	0		
-0.03319021224975586	0.0033223090171813963	0		0.4180144348144531	-2.382521728515625	0		-1.0259742431640626	0.09383082580566406	0		-0.9393734130859375	-2.3306923828125	0		1.361568359375	-0.7081229858398438	0		3.041691162109375	-0.36962380981445314	0		4.495216796875	-0.1388268280029297	0		5.59194873046875	0.17718991088867186	0		-0.02045448875427246	6.01077685546875	0		
0.051530307769775394	-0.0027621328830718995	0		0.4208418884277344	-2.379412353515625	0		-1.0201130981445312	0.09790757751464843	0		-1.002596923828125	-2.330607666015625	0		1.3654234619140626	-0.7040357666015625	0		3.056357666015625	-0.3787091064453125	0		4.50701708984375	-0.1388806915283203	0		5.5927529296875	0.17728817749023437	0		0.01347939682006836	6.0164365234375	0		
-0.027832193374633787	-0.0014366140365600585	0		0.41941012573242187	-2.3822294921875	0		-1.0245413818359375	0.09414476776123047	0		-0.9379769287109375	-2.3303798828125	0		1.3629892578125	-0.7078449096679688	0		3.04618994140625	-0.3644153747558594	0		4.50764501953125	-0.1387566833496094	0		5.5826474609375	0.19556329345703125	0		-0.018932668685913086	6.01107568359375	0		
-3.765139877796173E-4	-0.0016597050428390503	0		0.41782437133789063	-2.384031005859375	0		-1.0240821533203126	0.09432296752929688	0		-0.9395623168945313	-2.3321728515625	0		1.35753173828125	-0.7015949096679688	0		3.05254296875	-0.37135031127929685	0		4.5081025390625	-0.13861399841308594	0		5.5938427734375	0.17754011535644532	0		-0.018435489654541014	6.01124755859375	0		
-0.003128774881362915	-0.004427046775817871	0		0.44505551147460937	-2.38723974609375	0		-1.027848388671875	0.09057612609863282	0		-0.9413278198242188	-2.334949462890625	0		1.3547755126953125	-0.704369873046875	0		3.03276123046875	-0.37588589477539064	0		4.50839306640625	-0.13845091247558594	0		5.58416552734375	0.17984318542480468	0		-0.018110361099243164	6.01143603515625	0		
4.316100105643272E-5	-0.0012638800144195556	0		0.39229534912109376	-2.378259521484375	0		-1.056716552734375	0.09121281433105469	0		-0.9672369995117187	-2.33635693359375	0		1.363855712890625	-0.7073003540039062	0		3.047754638671875	-0.38491143798828126	0		4.4945078125	-0.13905984497070312	0		5.59426416015625	0.17787800598144532	0		-0.01599767017364502	6.00861474609375	0		
0.0071152510643005375	0.005861870765686035	0		0.4242827758789062	-2.376500732421875	0		-1.0516878662109375	0.0953720703125	0		-0.9991547241210937	-2.32765673828125	0		1.366881591796875	-0.7031207275390625	0		3.057000732421875	-0.36582748413085936	0		4.5056669921875	-0.12600989532470702	0		5.5942353515625	0.17808633422851564	0		1.5419800579547882E-4	6.0196083984375	0		
-1.6941900551319122E-4	-7.81603991985321E-4	0		0.4200210876464844	-2.381189208984375	0		-1.02387353515625	0.095218017578125	0		-0.9393938598632813	-2.331279052734375	0		1.3577271728515625	-0.7007393188476563	0		3.03756982421875	-0.38230184936523437	0		4.5083076171875	-0.137810546875	0		5.58918505859375	0.1873978271484375	0		0.015940727233886717	6.01662744140625	0		
-5.01567006111145E-4	-5.016149878501892E-4	0		0.4176568298339844	-2.38288037109375	0		-1.02420556640625	0.09549932098388672	0		-0.93972900390625	-2.330997802734375	0		1.3633056640625	-0.7065482788085937	0		3.048338623046875	-0.3751875915527344	0		4.53097265625	-0.13787315368652345	0		5.5788837890625	0.18981686401367187	0		-0.01748265838623047	6.0103916015625	0		
-0.03101945495605469	-0.0027531259059906006	0		0.41513565063476565	-2.3855419921875	0		-1.0287408447265625	0.0918673095703125	0		-0.9422501220703124	-2.333659423828125	0		1.3597847900390625	-0.7091953125	0		3.035935791015625	-0.36970391845703127	0		4.507498046875	-0.13722804260253907	0		5.588126953125	0.17098065185546876	0		-0.03313321685791016	5.99892138671875	0		
-0.0015948410034179687	1.4731599390506745E-4	0		0.4254474792480469	-2.390362060546875	0		-1.0583538818359375	0.09263101959228516	0		-0.996960693359375	-2.33952880859375	0		1.3622130126953125	-0.705898193359375	0		3.036451904296875	-0.3603764953613281	0		4.51176416015625	-0.1449559326171875	0		5.59262744140625	0.17925209045410156	0		-0.017595800399780273	6.01002587890625	0		
-0.002340687036514282	5.212380290031434E-4	0		0.4198974304199219	-2.376915283203125	0		-1.0201041259765624	0.09243177795410157	0		-0.9296504516601563	-2.33615283203125	0		1.36452685546875	-0.7015657958984375	0		3.03947216796875	-0.37605316162109376	0		4.5102236328125	-0.13055955505371095	0		5.59188134765625	0.17963755798339845	0		0.01573014259338379	6.0159013671875	0		
-0.0032047948837280273	9.317589998245239E-4	0		0.4149680786132813	-2.381444580078125	0		-1.0209685668945312	0.09283908081054687	0		-1.0094547729492187	-2.331589111328125	0		1.360606689453125	-0.7051066284179688	0		3.04971044921875	-0.36879476928710936	0		4.50527294921875	-0.13607559204101563	0		5.58589990234375	0.17213978576660155	0		-0.033425930023193356	5.9980166015625	0		
-0.0041746110916137695	0.001381535053253174	0		0.41400823974609374	-2.380992919921875	0		-0.9549459228515625	0.09230416870117188	0		-0.9375543212890625	-2.3412109375	0		1.3565963134765624	-0.70760693359375	0		3.041713623046875	-0.3702295837402344	0		4.5043037109375	-0.13560693359375	0		5.590060546875	0.18153884887695312	0		-0.0023072259426116944	6.0059970703125	0		
